<svg xmlns="http://www.w3.org/2000/svg" viewBox="0 0 64 64" fill="none">
  <defs>
    <linearGradient id="g" x1="0" y1="0" x2="64" y2="64" gradientUnits="userSpaceOnUse">
      <stop stop-color="#059669"/>
      <stop offset="1" stop-color="#14b8a6"/>
    </linearGradient>
  </defs>
  <path d="M29.2 2.6a3.6 3.6 0 015.6 0l2.8 3.6a3.6 3.6 0 003.2 1.4l4.5-.3a3.6 3.6 0 013.9 3l.8 4.5a3.6 3.6 0 002.1 2.8l4 2a3.6 3.6 0 011.7 4.7l-1.7 4.2a3.6 3.6 0 000 3.5l1.7 4.2a3.6 3.6 0 01-1.7 4.7l-4 2a3.6 3.6 0 00-2.1 2.8l-.8 4.5a3.6 3.6 0 01-3.9 3l-4.5-.3a3.6 3.6 0 00-3.2 1.4l-2.8 3.6a3.6 3.6 0 01-5.6 0l-2.8-3.6a3.6 3.6 0 00-3.2-1.4l-4.5.3a3.6 3.6 0 01-3.9-3l-.8-4.5a3.6 3.6 0 00-2.1-2.8l-4-2a3.6 3.6 0 01-1.7-4.7l1.7-4.2a3.6 3.6 0 000-3.5l-1.7-4.2a3.6 3.6 0 011.7-4.7l4-2a3.6 3.6 0 002.1-2.8l.8-4.5a3.6 3.6 0 013.9-3l4.5.3a3.6 3.6 0 003.2-1.4l2.8-3.6z" fill="url(#g)"/>
  <path d="M22 33l7 7 13-14" stroke="#fff" stroke-width="5" stroke-linecap="round" stroke-linejoin="round" fill="none"/>
</svg>
